<svg xmlns="http://www.w3.org/2000/svg" viewBox="44 44 575 137"><path d="M162 86.57L90 45l-9 5.2v10.39l-9-5.2-9 5.2v10.39l-9-5.2-9 5.2v83.14l9 5.2 9-5.2v10.39l9 5.2 9-5.2v10.39l9 5.2 72-41.57v-10.39l-9-5.2 9-5.2v-10.39l-9-5.2 9-5.2V86.57zm-99 57.16l-9 5.2V76.18l9 5.2v62.35zm27 5.19v-10.39l36-20.78 9 5.2-45 25.97zm27-36.37l-27 15.59V96.96l27 15.59zm9-5.2L90 86.57V76.18l45 25.98-9 5.19zM72 65.78l9 5.2v10.39l-9-5.2V65.78zm0 20.79l9 5.2v41.57l-9 5.2V86.57zm0 62.35l9-5.2v10.39l-9 5.2v-10.39zm81-15.59L90 169.7v-10.39l54-31.18 9 5.2zm0-20.78l-9 5.2-9-5.2 9-5.2 9 5.2zm-9-15.59L90 65.78V55.39l63 36.37-9 5.2z" fill="#00e100"/><path d="M199.39 148.92H189V76.18h31.7c14.55 0 23.38 8.83 23.38 21.82s-8.83 21.82-23.38 21.82h-21.3v29.1zM233.69 98c0-7.27-4.16-12.99-12.99-12.99h-21.3v25.98h21.3c8.83 0 12.99-5.72 12.99-12.99zm14.24 10.91c1.04-8.63 8.31-15.59 22.97-15.59 8.94 0 16.52 2.39 20.37 8.83 1.66 2.81 2.6 6.55 2.6 10.91v35.85h-9.98v-6.76c-3.12 4.16-9.35 8.31-18.19 8.31-11.02 0-20.37-5.72-20.37-17.67 0-9.35 6.34-16 19.85-17.15l18.71-1.56v-1.04c0-7.27-3.12-11.95-12.99-11.95-7.9 0-12.16 3.12-12.68 7.79h-10.29zm35.95 16.63v-4.16l-17.67 1.56c-7.28.62-10.91 4.16-10.91 9.87 0 7.28 5.2 9.87 11.43 9.87 9.36.01 17.15-6.23 17.15-17.14zm40.74-22.34c-7.27 0-11.95 4.16-11.95 13.51v32.22h-9.98V94.88h9.98v6.24c2.6-4.68 6.75-7.28 14.55-7.28h2.81v9.35h-5.41zm8.42 5.71c1.04-8.63 8.31-15.59 22.97-15.59 8.94 0 16.52 2.39 20.37 8.83 1.66 2.81 2.6 6.55 2.6 10.91v35.85H369v-6.76c-3.12 4.16-9.35 8.31-18.19 8.31-11.02 0-20.37-5.72-20.37-17.67 0-9.35 6.34-16 19.85-17.15l18.71-1.56v-1.04c0-7.27-3.12-11.95-12.99-11.95-7.9 0-12.16 3.12-12.68 7.79h-10.29zM369 125.54v-4.16l-17.67 1.56c-7.28.62-10.91 4.16-10.91 9.87 0 7.28 5.2 9.87 11.43 9.87 9.35.01 17.15-6.23 17.15-17.14zm59.03 16.11c-3.12 5.2-9.35 8.83-17.67 8.83-16.21 0-25.04-12.99-25.04-28.58 0-15.59 8.83-28.58 25.04-28.58 8.31 0 14.55 3.64 17.67 8.83V76.18H438v72.75h-9.98v-7.28zm-16.11-40.01c-10.91 0-16.63 8.83-16.63 20.26 0 11.43 5.72 20.27 16.63 20.27s16.63-9.35 16.63-20.27c0-10.91-5.72-20.26-16.63-20.26zm64.54 38.97v8.31h-32.01v-8.31h11.02V103.2h-11.02v-8.31h20.99v45.73h11.02zm-11.02-54.04h-9.98V76.18h9.98v10.39zm53 54.04c-2.08 3.12-7.79 7.79-17.15 7.79-15.17 0-25.04-12.47-25.04-27.54s9.87-27.54 25.04-27.54c9.35 0 15.07 4.68 17.15 7.79v-6.24h9.98v48.32c0 17.15-9.87 25.98-25.57 25.98-12.06 0-20.89-6.24-22.97-15.59h10.39c.94 3.74 4.78 7.79 12.57 7.79 11.43 0 15.59-7.27 15.59-18.19v-2.57zm-16.1-38.97c-9.87 0-16.11 8.83-16.11 19.23 0 10.39 6.23 19.23 16.11 19.23 10.39 0 16.63-8.83 16.63-19.23-.01-10.4-6.24-19.23-16.63-19.23zm45.2-.52c3.12-5.72 9.35-7.79 15.59-7.79 7.27 0 14.03 3.12 17.15 9.35 3.12-5.72 8.83-9.35 18.19-9.35 11.43 0 19.75 6.76 19.75 20.26v35.33h-9.98v-33.77c0-8.83-3.64-13.51-11.85-13.51-6.76 0-13.51 4.16-13.51 15.07v32.22h-9.98v-33.77c0-8.83-3.64-13.51-11.85-13.51-6.76 0-13.51 4.16-13.51 15.07v32.22h-9.98V94.88h9.98v6.24z"/></svg>