<?xml version="1.0" standalone="no"?>
<!DOCTYPE svg PUBLIC "-//W3C//DTD SVG 20010904//EN"
 "http://www.w3.org/TR/2001/REC-SVG-20010904/DTD/svg10.dtd">
<svg version="1.0" xmlns="http://www.w3.org/2000/svg"
 width="500.000000pt" height="500.000000pt" viewBox="0 0 500.000000 500.000000"
 preserveAspectRatio="xMidYMid meet">
<metadata>
Created by potrace 1.11, written by Peter Selinger 2001-2013
</metadata>
<g transform="translate(0.000000,500.000000) scale(0.100000,-0.100000)"
fill="#00e100" stroke="none">
<path d="M2095 4793 c-49 -30 -99 -58 -110 -63 -20 -10 -39 -22 -85 -52 l-25
-16 0 -176 c0 -97 -1 -176 -3 -176 -6 0 -120 64 -212 119 -47 28 -90 51 -96
51 -7 0 -80 -39 -163 -87 l-151 -88 0 -177 c0 -98 -3 -178 -6 -178 -3 0 -63
34 -133 74 -191 112 -164 108 -273 43 -165 -97 -183 -108 -200 -114 -17 -5
-18 -83 -18 -1454 0 -812 4 -1449 9 -1449 4 0 57 -29 117 -64 60 -36 128 -75
151 -87 l41 -22 116 67 c64 36 121 66 126 66 6 0 10 4 10 8 0 8 43 32 55 32 3
0 5 -80 5 -178 l0 -178 56 -32 c31 -18 60 -32 64 -32 5 0 10 -3 12 -7 3 -8 69
-47 144 -85 l41 -21 150 87 c82 47 152 86 154 86 3 0 4 -80 4 -177 l0 -178
155 -91 c128 -75 158 -89 175 -81 11 6 22 13 25 16 3 3 21 14 40 25 60 32 119
66 303 173 98 56 181 103 184 103 4 0 14 6 22 14 9 7 43 28 76 45 32 18 72 42
87 52 15 11 28 18 28 14 0 -3 6 -1 13 5 11 10 385 228 417 243 8 4 29 15 45
26 32 19 123 72 385 223 91 52 224 129 297 171 72 42 147 85 167 96 40 23 103
60 131 79 11 6 27 15 35 19 8 4 59 33 113 65 54 32 103 58 108 58 5 0 9 79 9
184 l0 183 -82 49 c-46 27 -87 51 -91 53 -5 2 -38 20 -74 41 -64 38 -65 38
-41 53 25 16 133 79 188 109 19 11 50 29 68 40 l32 20 0 178 0 179 -102 60
c-57 33 -108 64 -115 70 -7 6 -19 11 -26 11 -8 0 -20 7 -27 15 -7 8 -19 15
-28 15 -13 0 -12 3 3 20 10 11 22 20 26 20 4 0 66 34 138 76 l131 76 0 184 c0
101 -4 184 -8 184 -5 0 -103 55 -218 121 -115 67 -225 131 -244 141 -19 11
-39 24 -45 28 -5 4 -35 21 -65 37 -30 17 -111 63 -180 103 -69 40 -244 141
-390 225 -146 84 -331 191 -411 237 -80 47 -152 88 -160 91 -8 4 -27 15 -44
26 -16 10 -129 75 -250 144 -121 70 -227 131 -235 137 -8 5 -51 30 -95 55 -44
25 -98 56 -120 69 l-40 23 -90 -54z m125 -328 c7 -8 16 -15 21 -15 4 0 72 -38
151 -84 79 -46 235 -136 348 -201 113 -64 215 -124 227 -131 13 -8 25 -13 27
-12 2 2 12 -4 22 -13 11 -9 62 -40 114 -70 52 -30 104 -59 115 -66 11 -7 27
-15 35 -19 8 -4 39 -22 68 -41 29 -18 54 -33 56 -33 3 0 87 -48 188 -107 101
-58 199 -115 218 -126 19 -11 49 -28 65 -38 17 -11 37 -22 45 -26 8 -4 48 -26
88 -50 40 -24 77 -43 82 -43 6 0 10 -4 10 -10 0 -5 4 -10 9 -10 5 0 47 -22 93
-49 45 -27 102 -60 125 -72 33 -18 40 -25 32 -36 -6 -7 -15 -13 -19 -13 -4 0
-68 -36 -141 -79 l-134 -79 -40 23 c-71 40 -90 50 -410 235 -126 73 -257 149
-290 169 -33 19 -62 36 -65 36 -3 0 -17 8 -32 18 -16 9 -40 25 -55 34 -16 10
-30 18 -33 18 -3 0 -45 24 -95 54 -80 47 -295 171 -393 227 -20 11 -53 30 -72
42 -19 12 -41 25 -48 28 -8 4 -87 49 -175 101 -150 86 -162 96 -167 126 -8 50
0 327 9 327 5 0 14 -7 21 -15z m-634 -354 c5 -5 29 -20 54 -33 25 -14 88 -50
140 -81 l95 -55 1 -168 c0 -166 -3 -204 -15 -187 -3 5 -72 46 -152 92 l-146
83 0 179 c0 99 3 179 7 179 3 0 10 -4 16 -9z m-535 -414 c37 -20 95 -54 130
-76 l64 -38 3 -1080 c2 -857 -1 -1083 -10 -1090 -19 -16 -278 -163 -290 -166
-7 -1 -10 383 -10 1248 0 688 1 1254 1 1259 1 4 11 2 24 -6 12 -8 52 -31 88
-51z m1319 -39 c58 -33 125 -73 150 -88 72 -45 153 -91 173 -97 9 -3 17 -9 17
-14 0 -5 5 -9 11 -9 6 0 56 -27 111 -60 54 -33 101 -60 103 -60 3 0 50 -27
106 -60 55 -33 102 -60 103 -60 5 0 382 -220 393 -230 7 -5 15 -10 18 -10 10
0 185 -102 185 -109 0 -6 -14 -14 -115 -71 -27 -15 -81 -46 -119 -69 -77 -45
-63 -46 -176 21 -36 21 -72 43 -80 47 -8 5 -111 65 -229 133 -118 67 -233 134
-255 147 -23 13 -60 34 -83 47 -23 13 -108 63 -190 110 -81 48 -173 101 -204
118 -31 17 -65 38 -77 46 -23 17 -24 27 -23 242 l1 128 38 -21 c20 -12 84 -48
142 -81z m-686 -328 c2 0 46 -25 97 -55 l94 -54 0 -718 c0 -697 0 -717 -19
-735 -11 -10 -23 -18 -28 -18 -6 0 -88 -47 -158 -90 -84 -52 -99 -58 -104 -42
-3 15 -1 1773 2 1780 1 1 27 -13 57 -33 31 -19 57 -35 59 -35z m751 -432 c99
-58 191 -111 205 -119 14 -8 33 -20 43 -28 9 -8 17 -11 17 -7 0 4 12 -1 28
-12 15 -10 104 -63 197 -117 209 -120 201 -114 173 -130 -13 -7 -79 -45 -148
-85 -149 -87 -279 -162 -415 -240 -55 -31 -155 -89 -222 -128 l-123 -71 0 102
c-1 114 -1 765 0 895 l0 84 33 -20 c17 -11 113 -67 212 -124z m1740 -284 c50
-29 113 -65 142 -80 29 -15 50 -31 47 -35 -3 -5 -51 -34 -107 -66 -56 -31
-104 -60 -107 -63 -3 -3 -24 -15 -46 -27 l-42 -22 -113 64 c-62 36 -117 65
-121 65 -4 0 -8 3 -8 8 0 4 -13 13 -30 20 -16 8 -30 17 -30 21 0 13 295 177
310 172 8 -3 56 -28 105 -57z m-635 -355 c3 -3 10 -8 16 -10 28 -11 184 -103
184 -110 0 -8 -245 -149 -259 -149 -5 0 -11 -4 -13 -8 -3 -7 -71 -48 -199
-120 -20 -11 -67 -39 -104 -61 -37 -23 -69 -41 -72 -41 -2 0 -57 -31 -121 -69
-64 -38 -191 -111 -282 -163 -91 -52 -239 -138 -330 -190 l-165 -96 -5 62 c-3
33 -3 114 0 180 l5 118 105 60 c58 33 142 82 188 109 45 27 87 49 92 49 6 0
10 4 10 8 0 4 12 13 28 20 15 7 45 23 67 36 22 13 85 49 140 81 55 31 111 65
125 73 14 9 27 17 30 17 3 0 16 8 30 17 24 15 267 156 320 185 14 8 43 25 65
37 l40 23 50 -26 c28 -14 52 -29 55 -32z m603 -348 c37 -22 71 -41 76 -41 5 0
11 -3 13 -7 2 -5 24 -19 50 -32 25 -14 57 -33 70 -42 22 -17 22 -18 3 -25 -20
-8 -423 -239 -805 -462 -19 -11 -51 -29 -70 -40 -19 -11 -177 -102 -350 -202
-173 -100 -335 -194 -360 -208 -25 -14 -78 -45 -118 -69 -41 -24 -76 -43 -78
-43 -3 0 -30 -16 -60 -35 -30 -19 -57 -35 -60 -35 -3 0 -29 -16 -59 -35 -30
-19 -55 -31 -55 -27 0 4 -4 2 -8 -4 -14 -21 -142 -86 -143 -72 0 7 0 87 0 178
l-1 165 79 46 c67 39 551 319 638 369 17 9 147 85 290 167 143 83 276 160 295
171 19 11 91 52 160 92 69 40 143 83 165 95 22 13 87 51 144 84 57 33 107 59
110 57 3 -2 36 -22 74 -45z m-2268 -677 l0 -177 -153 -88 c-84 -49 -154 -89
-156 -89 -1 0 -2 80 -2 179 l-1 178 56 32 c31 18 79 45 106 62 28 16 57 33 65
36 8 4 26 15 39 25 45 34 47 29 46 -158z"/>
</g>
</svg>
